<svg width="50" height="60" viewBox="0 0 50 60" fill="none" xmlns="http://www.w3.org/2000/svg">
<g clip-path="url(#clip0_0_155)">
<path d="M48.4031 49.6579C47.365 49.0949 43.2967 48.8536 39.7832 48.7731L35.0888 48.7139L35.2485 48.3413C36.8455 44.4805 36.6858 42.7913 34.3701 40.0608C33.2522 38.6934 32.3738 37.1652 32.3738 36.6021C32.3738 33.7869 30.5372 29.3672 28.4653 27.1151C27.1876 25.7477 25.9898 24.6216 25.8301 24.6216C25.7503 24.6216 25.5906 27.5977 25.5107 31.2934C25.4309 35.0739 24.6324 41.0218 23.6741 45.1239C22.1569 51.2327 22.0771 52.8414 22.8756 55.7371C23.8338 59.2762 24.9518 60.0001 29.7387 60.0001C31.4156 60.0001 32.6134 59.5175 33.0925 58.5523C33.6514 57.5066 34.5298 57.1849 36.5261 57.4262C38.3627 57.5871 39.6403 57.2653 40.2792 56.461C41.8762 54.5306 40.7583 52.9219 37.2448 51.9609L34.513 51.2751C35.3872 50.3903 43.4228 49.7892 44.255 50.6274C44.8139 51.1904 44.7341 51.5926 43.9355 51.8339C43.2967 51.9948 42.2587 52.3969 41.6198 52.5578C40.981 52.7991 41.54 53.0404 42.8176 53.0404C44.1751 53.0404 49.9791 51.6053 50.0001 50.9491C50.0211 50.3818 48.4031 49.6622 48.4031 49.6622V49.6579Z" fill="white"/>
<path d="M15.4787 31.2976C15.3988 27.5976 15.2391 24.6257 15.1593 24.6257C14.9996 24.6257 13.8018 25.7518 12.5241 27.1192C10.448 29.3714 8.61559 33.7953 8.61559 36.6063C8.61559 37.1693 7.73722 38.6976 6.61929 40.0649C4.30358 42.7997 4.14388 44.4889 5.74092 48.3455L6.9387 51.1607L3.74461 51.965C0.231124 52.9303 -0.886805 54.539 0.710237 56.4651C1.34905 57.2695 2.62669 57.5912 4.46328 57.4304C6.45959 57.1891 7.33796 57.5108 7.89692 58.5564C8.37603 59.5217 9.57382 60.0043 11.2507 60.0043C16.0418 60.0043 17.1598 59.2804 18.1138 55.7412C18.9123 52.8456 18.8325 51.2411 17.3153 45.1281C16.357 41.0259 15.5585 35.078 15.4787 31.2976Z" fill="white"/>
<path d="M31.8063 21.5226V8.3906C33.3907 4.97848 32.6174 0.571506 31.6297 0.093132C30.722 -0.410643 27.4144 1.20652 25.4769 3.97093L25.1113 2.47654C25.002 2.09553 24.7877 1.99393 24.3926 1.99393C24.3926 1.99393 21.4675 1.39702 20.4925 1.39702C19.5174 1.39702 16.5923 1.99393 16.5923 1.99393C16.1931 1.99393 15.9787 2.09553 15.8737 2.47654L15.508 3.97093C13.5748 1.20652 10.2672 -0.414876 9.35943 0.093132C8.36758 0.571506 7.59428 4.97848 9.18291 8.3906V21.5226C9.18291 22.454 9.9352 23.2117 10.8598 23.2117H30.1252C31.054 23.2117 31.8021 22.454 31.8021 21.5226H31.8063ZM10.8598 5.87173C10.3891 5.95639 9.96042 6.15536 9.65362 6.4517C9.03582 3.89049 9.25016 1.59599 9.87636 1.29118C10.5488 0.910178 12.8561 2.94221 14.3145 5.29598L10.8598 5.86749V5.87173ZM20.4925 20.5701C17.29 20.5701 14.6969 17.9581 14.6969 14.7322C14.6969 11.5064 17.29 8.89437 20.4925 8.89437C23.695 8.89437 26.2881 11.5064 26.2881 14.7322C26.2881 17.9581 23.695 20.5701 20.4925 20.5701ZM31.1086 1.29118C31.7348 1.59176 31.945 3.88626 31.3314 6.4517C31.0246 6.15536 30.5959 5.95639 30.1252 5.87173L26.6747 5.30022C28.1331 2.94644 30.4404 0.914412 31.1086 1.29542V1.29118Z" fill="white"/>
<path d="M20.4925 11.354C18.6391 11.354 17.1387 12.8653 17.1387 14.7323C17.1387 16.5992 18.6391 18.1105 20.4925 18.1105C22.3459 18.1105 23.8462 16.5992 23.8462 14.7323C23.8462 12.8653 22.3459 11.354 20.4925 11.354Z" fill="white"/>
</g>
<defs>
<clipPath id="clip0_0_155">
<rect width="50" height="60" fill="white"/>
</clipPath>
</defs>
</svg>
